<mxfile host="app.diagrams.net" modified="2024-07-15T12:04:15.886Z" agent="Mozilla/5.0 (Windows NT 10.0; Win64; x64) AppleWebKit/537.36 (KHTML, like Gecko) Chrome/126.0.0.0 Safari/537.36" etag="OMw8bTH9cTTA6cAPtoaU" version="24.6.5" type="github" pages="2">
  <diagram id="f106602c-feb2-e66a-4537-3a34d633f6aa" name="Page-1">
    <mxGraphModel dx="1232" dy="1924" grid="1" gridSize="10" guides="1" tooltips="1" connect="1" arrows="1" fold="1" page="1" pageScale="1" pageWidth="1169" pageHeight="827" background="none" math="0" shadow="0">
      <root>
        <mxCell id="0" />
        <mxCell id="1" parent="0" />
        <mxCell id="GuzJ8BqgIlNCJu6hI-l5-1007" value="&lt;b&gt;Google &lt;/b&gt;Cloud Platform" style="fillColor=#F6F6F6;strokeColor=none;shadow=0;gradientColor=none;fontSize=14;align=left;spacing=10;fontColor=#717171;9E9E9E;verticalAlign=top;spacingTop=-4;fontStyle=0;spacingLeft=40;html=1;movable=1;resizable=1;rotatable=1;deletable=1;editable=1;locked=0;connectable=1;" parent="1" vertex="1">
          <mxGeometry x="109" y="-550" width="1060" height="750" as="geometry" />
        </mxCell>
        <mxCell id="GuzJ8BqgIlNCJu6hI-l5-1008" value="" style="shape=mxgraph.gcp2.google_cloud_platform;fillColor=#F6F6F6;strokeColor=none;shadow=0;gradientColor=none;" parent="GuzJ8BqgIlNCJu6hI-l5-1007" vertex="1">
          <mxGeometry width="23" height="20" relative="1" as="geometry">
            <mxPoint x="20" y="10" as="offset" />
          </mxGeometry>
        </mxCell>
        <mxCell id="G6J45XCW2_7zyPhB9Q_z-1" value="host project - nonprod" style="sketch=0;points=[[0,0,0],[0.25,0,0],[0.5,0,0],[0.75,0,0],[1,0,0],[1,0.25,0],[1,0.5,0],[1,0.75,0],[1,1,0],[0.75,1,0],[0.5,1,0],[0.25,1,0],[0,1,0],[0,0.75,0],[0,0.5,0],[0,0.25,0]];rounded=1;absoluteArcSize=1;arcSize=2;html=1;strokeColor=none;gradientColor=none;shadow=0;dashed=0;fontSize=12;fontColor=#9E9E9E;align=left;verticalAlign=top;spacing=10;spacingTop=-4;whiteSpace=wrap;fillColor=#EFEBE9;movable=1;resizable=1;rotatable=1;deletable=1;editable=1;locked=0;connectable=1;" vertex="1" parent="GuzJ8BqgIlNCJu6hI-l5-1007">
          <mxGeometry x="145.05263157894737" y="50" width="278.9473684210526" height="290" as="geometry" />
        </mxCell>
        <mxCell id="G6J45XCW2_7zyPhB9Q_z-33" value="" style="sketch=0;points=[[0,0,0],[0.25,0,0],[0.5,0,0],[0.75,0,0],[1,0,0],[1,0.25,0],[1,0.5,0],[1,0.75,0],[1,1,0],[0.75,1,0],[0.5,1,0],[0.25,1,0],[0,1,0],[0,0.75,0],[0,0.5,0],[0,0.25,0]];rounded=1;absoluteArcSize=1;arcSize=2;html=1;strokeColor=none;gradientColor=none;shadow=0;dashed=0;fontSize=12;fontColor=#9E9E9E;align=left;verticalAlign=top;spacing=10;spacingTop=-4;whiteSpace=wrap;fillColor=#E1F5FE;movable=1;resizable=1;rotatable=1;deletable=1;editable=1;locked=0;connectable=1;" vertex="1" parent="GuzJ8BqgIlNCJu6hI-l5-1007">
          <mxGeometry x="167.36842105263156" y="80" width="234.3157894736842" height="240" as="geometry" />
        </mxCell>
        <mxCell id="G6J45XCW2_7zyPhB9Q_z-37" value="" style="strokeColor=none;shadow=1;strokeWidth=1;rounded=1;absoluteArcSize=1;arcSize=2;fillColor=none;movable=1;resizable=1;rotatable=1;deletable=1;editable=1;locked=0;connectable=1;" vertex="1" parent="GuzJ8BqgIlNCJu6hI-l5-1007">
          <mxGeometry x="167.36842105263156" y="80" width="211.99999999999997" height="60" as="geometry" />
        </mxCell>
        <mxCell id="G6J45XCW2_7zyPhB9Q_z-38" value="&lt;font color=&quot;#000000&quot;&gt;nonprod&lt;/font&gt;&lt;br&gt;Share VPC network" style="editableCssRules=.*;html=1;fontColor=#999999;shape=image;verticalLabelPosition=middle;verticalAlign=middle;labelPosition=right;align=left;spacingLeft=20;part=1;points=[];imageAspect=0;image=data:image/svg+xml,PHN2ZyB4bWxucz0iaHR0cDovL3d3dy53My5vcmcvMjAwMC9zdmciIHhtbG5zOnY9Imh0dHBzOi8vdmVjdGEuaW8vbmFubyIgd2lkdGg9IjIwIiBoZWlnaHQ9IjIwIiB2aWV3Qm94PSIwIDAgMjAgMjAiPiYjeGE7CTxzdHlsZSB0eXBlPSJ0ZXh0L2NzcyI+JiN4YTsJLnN0MHtmaWxsOiM0Mjg1ZjQ7fSYjeGE7CS5zdDF7ZmlsbDojNjY5ZGY2O30mI3hhOwkuc3Qye2ZpbGw6I2FlY2JmYTt9JiN4YTsJPC9zdHlsZT4mI3hhOwk8cGF0aCBjbGFzcz0ic3QyIiBkPSJNMTQgMGg2djZoLTZ6Ii8+JiN4YTsJPHBhdGggY2xhc3M9InN0MSIgZD0iTTE3IDBoM3Y2aC0zeiIvPiYjeGE7CTxwYXRoIGNsYXNzPSJzdDIiIGQ9Ik0xNCAxNGg2djZoLTZ6Ii8+JiN4YTsJPHBhdGggY2xhc3M9InN0MSIgZD0iTTE3IDE0aDN2NmgtM3oiLz4mI3hhOwk8cGF0aCBjbGFzcz0ic3QyIiBkPSJNMCAwaDZ2NkgweiIvPiYjeGE7CTxwYXRoIGNsYXNzPSJzdDEiIGQ9Ik0zIDBoM3Y2SDN6Ii8+JiN4YTsJPHBhdGggY2xhc3M9InN0MiIgZD0iTTAgMTRoNnY2SDB6Ii8+JiN4YTsJPGcgY2xhc3M9InN0MSI+JiN4YTsJCTxwYXRoIGQ9Ik0zIDE0aDN2Nkgzek02IDJoOHYySDZ6Ii8+JiN4YTsJCTxwYXRoIGQ9Ik02IDE2aDh2Mkg2ek0xNiA2aDJ2OGgtMnpNMiA2aDJ2OEgyeiIvPiYjeGE7CTwvZz4mI3hhOwk8cGF0aCBjbGFzcz0ic3QwIiBkPSJNMiA2aDJ2Mkgyem0xNCAwaDJ2MmgtMnpNNiAyaDJ2Mkg2em0wIDE0aDJ2Mkg2eiIvPiYjeGE7PC9zdmc+;movable=1;resizable=1;rotatable=1;deletable=1;editable=1;locked=0;connectable=1;" vertex="1" parent="G6J45XCW2_7zyPhB9Q_z-37">
          <mxGeometry width="30" height="30" relative="1" as="geometry">
            <mxPoint x="15" y="15" as="offset" />
          </mxGeometry>
        </mxCell>
        <mxCell id="G6J45XCW2_7zyPhB9Q_z-48" value="service project A - nonprod" style="sketch=0;points=[[0,0,0],[0.25,0,0],[0.5,0,0],[0.75,0,0],[1,0,0],[1,0.25,0],[1,0.5,0],[1,0.75,0],[1,1,0],[0.75,1,0],[0.5,1,0],[0.25,1,0],[0,1,0],[0,0.75,0],[0,0.5,0],[0,0.25,0]];rounded=1;absoluteArcSize=1;arcSize=2;html=1;strokeColor=none;gradientColor=none;shadow=0;dashed=0;fontSize=12;fontColor=#9E9E9E;align=left;verticalAlign=top;spacing=10;spacingTop=-4;whiteSpace=wrap;fillColor=#EFEBE9;movable=1;resizable=1;rotatable=1;deletable=1;editable=1;locked=0;connectable=1;" vertex="1" parent="GuzJ8BqgIlNCJu6hI-l5-1007">
          <mxGeometry x="71" y="370" width="208.84" height="160" as="geometry" />
        </mxCell>
        <mxCell id="G6J45XCW2_7zyPhB9Q_z-49" value="10.0.2.0/24&lt;div&gt;subnet&amp;nbsp;&lt;/div&gt;" style="sketch=0;points=[[0,0,0],[0.25,0,0],[0.5,0,0],[0.75,0,0],[1,0,0],[1,0.25,0],[1,0.5,0],[1,0.75,0],[1,1,0],[0.75,1,0],[0.5,1,0],[0.25,1,0],[0,1,0],[0,0.75,0],[0,0.5,0],[0,0.25,0]];rounded=1;absoluteArcSize=1;arcSize=2;html=1;strokeColor=none;gradientColor=none;shadow=0;dashed=0;fontSize=12;fontColor=#9E9E9E;align=left;verticalAlign=top;spacing=10;spacingTop=-4;whiteSpace=wrap;fillColor=#F3E5F5;" vertex="1" parent="GuzJ8BqgIlNCJu6hI-l5-1007">
          <mxGeometry x="189.68" y="230" width="160.32" height="55" as="geometry" />
        </mxCell>
        <mxCell id="G6J45XCW2_7zyPhB9Q_z-47" value="10.0.1.0/24&lt;div&gt;subnet&amp;nbsp;&lt;/div&gt;" style="sketch=0;points=[[0,0,0],[0.25,0,0],[0.5,0,0],[0.75,0,0],[1,0,0],[1,0.25,0],[1,0.5,0],[1,0.75,0],[1,1,0],[0.75,1,0],[0.5,1,0],[0.25,1,0],[0,1,0],[0,0.75,0],[0,0.5,0],[0,0.25,0]];rounded=1;absoluteArcSize=1;arcSize=2;html=1;strokeColor=none;gradientColor=none;shadow=0;dashed=0;fontSize=12;fontColor=#9E9E9E;align=left;verticalAlign=top;spacing=10;spacingTop=-4;whiteSpace=wrap;fillColor=#F3E5F5;" vertex="1" parent="GuzJ8BqgIlNCJu6hI-l5-1007">
          <mxGeometry x="189.68" y="140" width="160" height="55" as="geometry" />
        </mxCell>
        <mxCell id="G6J45XCW2_7zyPhB9Q_z-51" value="" style="strokeColor=#dddddd;shadow=1;strokeWidth=1;rounded=1;absoluteArcSize=1;arcSize=2;" vertex="1" parent="GuzJ8BqgIlNCJu6hI-l5-1007">
          <mxGeometry x="101" y="430" width="142.63" height="60" as="geometry" />
        </mxCell>
        <mxCell id="G6J45XCW2_7zyPhB9Q_z-52" value="Instance A" style="editableCssRules=.*;html=1;fontColor=#999999;shape=image;verticalLabelPosition=middle;verticalAlign=middle;labelPosition=right;align=left;spacingLeft=20;part=1;points=[];imageAspect=0;image=data:image/svg+xml,PHN2ZyB4bWxucz0iaHR0cDovL3d3dy53My5vcmcvMjAwMC9zdmciIHhtbG5zOnY9Imh0dHBzOi8vdmVjdGEuaW8vbmFubyIgd2lkdGg9IjIwIiBoZWlnaHQ9IjIwIiB2aWV3Qm94PSIwIDAgMjAgMjAiPiYjeGE7CTxzdHlsZSB0eXBlPSJ0ZXh0L2NzcyI+JiN4YTsJLnN0MHtmaWxsOiM0Mjg1ZjQ7fSYjeGE7CS5zdDF7ZmlsbDojNjY5ZGY2O30mI3hhOwkuc3Qye2ZpbGw6I2FlY2JmYTt9JiN4YTsJPC9zdHlsZT4mI3hhOwk8cGF0aCBjbGFzcz0ic3QyIiBkPSJNNyA3aDZ2Nkg3eiIvPiYjeGE7CTxwYXRoIGNsYXNzPSJzdDEiIGQ9Ik05IDBoMnY0SDl6TTUgMGgydjRINXptOCAwaDJ2NGgtMnoiLz4mI3hhOwk8cGF0aCBjbGFzcz0ic3QwIiBkPSJNOSAxNmgydjRIOXptLTQgMGgydjRINXptOCAwaDJ2NGgtMnptMy01VjloNHYyem0wIDR2LTJoNHYyem0wLThWNWg0djJ6Ii8+JiN4YTsJPHBhdGggY2xhc3M9InN0MSIgZD0iTTAgMTFWOWg0djJ6bTAgNHYtMmg0djJ6bTAtOFY1aDR2MnoiLz4mI3hhOwk8cGF0aCBjbGFzcz0ic3QyIiBkPSJNMyAzdjE0aDE0VjN6bTEyIDEySDVWNWgxMHoiLz4mI3hhOwk8cGF0aCBjbGFzcz0ic3QxIiBkPSJNMTAgMTBsLTMgM2g2eiIvPiYjeGE7CTxwYXRoIGNsYXNzPSJzdDAiIGQ9Ik0xMyA3bC0zIDMgMyAzeiIvPiYjeGE7PC9zdmc+;" vertex="1" parent="G6J45XCW2_7zyPhB9Q_z-51">
          <mxGeometry width="30" height="30" relative="1" as="geometry">
            <mxPoint x="15" y="15" as="offset" />
          </mxGeometry>
        </mxCell>
        <mxCell id="G6J45XCW2_7zyPhB9Q_z-55" value="service project b - nonprod" style="sketch=0;points=[[0,0,0],[0.25,0,0],[0.5,0,0],[0.75,0,0],[1,0,0],[1,0.25,0],[1,0.5,0],[1,0.75,0],[1,1,0],[0.75,1,0],[0.5,1,0],[0.25,1,0],[0,1,0],[0,0.75,0],[0,0.5,0],[0,0.25,0]];rounded=1;absoluteArcSize=1;arcSize=2;html=1;strokeColor=none;gradientColor=none;shadow=0;dashed=0;fontSize=12;fontColor=#9E9E9E;align=left;verticalAlign=top;spacing=10;spacingTop=-4;whiteSpace=wrap;fillColor=#EFEBE9;movable=1;resizable=1;rotatable=1;deletable=1;editable=1;locked=0;connectable=1;" vertex="1" parent="GuzJ8BqgIlNCJu6hI-l5-1007">
          <mxGeometry x="311" y="370" width="208.84" height="160" as="geometry" />
        </mxCell>
        <mxCell id="G6J45XCW2_7zyPhB9Q_z-58" value="" style="strokeColor=#dddddd;shadow=1;strokeWidth=1;rounded=1;absoluteArcSize=1;arcSize=2;" vertex="1" parent="GuzJ8BqgIlNCJu6hI-l5-1007">
          <mxGeometry x="325.42" y="430" width="180" height="60" as="geometry" />
        </mxCell>
        <mxCell id="G6J45XCW2_7zyPhB9Q_z-59" value="&lt;br&gt;Kubernetes Engine" style="editableCssRules=.*;html=1;fontColor=#999999;shape=image;verticalLabelPosition=middle;verticalAlign=middle;labelPosition=right;align=left;spacingLeft=20;part=1;points=[];imageAspect=0;image=data:image/svg+xml,PHN2ZyB4bWxucz0iaHR0cDovL3d3dy53My5vcmcvMjAwMC9zdmciIHhtbG5zOnY9Imh0dHBzOi8vdmVjdGEuaW8vbmFubyIgd2lkdGg9IjMyOS45MjU5OTcyMzE3OTM4IiBoZWlnaHQ9IjM3OC4yODQ5OTAzMTEyNzg4IiB2aWV3Qm94PSIwIDAgODcuMjkyOTk5MjY3NTc4MTIgMTAwLjA4Nzk5NzQzNjUyMzQ0Ij4mI3hhOzxzdHlsZSB0eXBlPSJ0ZXh0L2NzcyI+JiN4YTsJLnN0MHtmaWxsOiNhZWNiZmE7fSYjeGE7CS5zdDF7ZmlsbDojNjY5ZGY2O30mI3hhOwkuc3Qye2ZpbGw6IzQyODVmNDt9JiN4YTs8L3N0eWxlPiYjeGE7CTxwYXRoIGNsYXNzPSJzdDAiIGQ9Ik00My43NTEgMEwwIDI1LjQ2NXYyLjU4OCA0Ni45Mmw0My43NTIgMjUuMTE1IDQzLjU0MS0yNS4xMjFWMjUuNDczem0yLjQzOCAxMS44NTNsMzIuMTAzIDE4Ljc4MlY2OS43N0w0My43MzkgODkuNzA1IDkgNjkuNzYyVjMwLjY0MWwzMi4xOS0xOC43MzZ2MTQuMTU0TDI0LjUwMyAzNi4xNTNsMTkuMTcyIDExLjUwMiAxOC44ODYtMTEuNTU0LTE2LjM3Mi0xMC4wMjR6Ii8+JiN4YTsJPHBhdGggY2xhc3M9InN0MSIgZD0iTTIyLjAyNSA0MC40OTZsLjE2NiAxOS4xNDMtMTMuMjQ3IDcuMzN2Mi43NDJsMi42MzcgMS41MTQgMTIuNjQ4LTYuOTk5IDE2Ljk2MSAxMC42MDJWNTEuOTkzeiIvPiYjeGE7CTxwYXRoIGNsYXNzPSJzdDIiIGQ9Ik02NS4zNDQgNDAuMjZMNDYuMTg5IDUxLjk3OXYyMi44NDdsMTYuODk5LTEwLjU3NiAxMi41MzkgNi45NzQgMi42MDktMS41MDV2LTIuNzY1bC0xMi43ODQtNy4xMTJ6Ii8+JiN4YTs8L3N2Zz4=;" vertex="1" parent="G6J45XCW2_7zyPhB9Q_z-58">
          <mxGeometry width="26" height="30" relative="1" as="geometry">
            <mxPoint x="17" y="15" as="offset" />
          </mxGeometry>
        </mxCell>
        <mxCell id="G6J45XCW2_7zyPhB9Q_z-60" value="" style="edgeStyle=orthogonalEdgeStyle;fontSize=12;html=1;endArrow=blockThin;endFill=1;rounded=0;strokeWidth=2;endSize=4;startSize=4;dashed=0;strokeColor=#9E9E9E;exitX=0;exitY=0.5;exitDx=0;exitDy=0;entryX=0;entryY=0.5;entryDx=0;entryDy=0;entryPerimeter=0;" edge="1" parent="GuzJ8BqgIlNCJu6hI-l5-1007" source="G6J45XCW2_7zyPhB9Q_z-51" target="G6J45XCW2_7zyPhB9Q_z-47">
          <mxGeometry width="100" relative="1" as="geometry">
            <mxPoint x="221" y="410" as="sourcePoint" />
            <mxPoint x="321" y="410" as="targetPoint" />
          </mxGeometry>
        </mxCell>
        <mxCell id="G6J45XCW2_7zyPhB9Q_z-61" value="" style="edgeStyle=orthogonalEdgeStyle;fontSize=12;html=1;endArrow=blockThin;endFill=1;rounded=0;strokeWidth=2;endSize=4;startSize=4;dashed=0;strokeColor=#9E9E9E;exitX=1;exitY=0.25;exitDx=0;exitDy=0;entryX=1;entryY=0.5;entryDx=0;entryDy=0;entryPerimeter=0;" edge="1" parent="GuzJ8BqgIlNCJu6hI-l5-1007" source="G6J45XCW2_7zyPhB9Q_z-58" target="G6J45XCW2_7zyPhB9Q_z-49">
          <mxGeometry width="100" relative="1" as="geometry">
            <mxPoint x="511" y="462" as="sourcePoint" />
            <mxPoint x="600" y="170" as="targetPoint" />
          </mxGeometry>
        </mxCell>
        <mxCell id="G6J45XCW2_7zyPhB9Q_z-32" value="A Shared VPC network is an extension of a VPC network that is provisioned out to a number of service projects, allowing the service projects to use a slice of the host project&#39;s network. This enables the service projects to communicate with each other using internal IPs, making the communication more secure and efficient.&amp;nbsp;&amp;nbsp;" style="sketch=0;points=[[0,0,0],[0.25,0,0],[0.5,0,0],[0.75,0,0],[1,0,0],[1,0.25,0],[1,0.5,0],[1,0.75,0],[1,1,0],[0.75,1,0],[0.5,1,0],[0.25,1,0],[0,1,0],[0,0.75,0],[0,0.5,0],[0,0.25,0]];rounded=1;absoluteArcSize=1;arcSize=2;html=1;strokeColor=none;gradientColor=none;shadow=0;dashed=0;fontSize=12;fontColor=#9E9E9E;align=left;verticalAlign=top;spacing=10;spacingTop=-4;whiteSpace=wrap;movable=1;resizable=1;rotatable=1;deletable=1;editable=1;locked=0;connectable=1;" vertex="1" parent="1">
          <mxGeometry x="140" y="10" width="1000" height="90" as="geometry" />
        </mxCell>
        <mxCell id="G6J45XCW2_7zyPhB9Q_z-62" value="host project - prod" style="sketch=0;points=[[0,0,0],[0.25,0,0],[0.5,0,0],[0.75,0,0],[1,0,0],[1,0.25,0],[1,0.5,0],[1,0.75,0],[1,1,0],[0.75,1,0],[0.5,1,0],[0.25,1,0],[0,1,0],[0,0.75,0],[0,0.5,0],[0,0.25,0]];rounded=1;absoluteArcSize=1;arcSize=2;html=1;strokeColor=none;gradientColor=none;shadow=0;dashed=0;fontSize=12;fontColor=#9E9E9E;align=left;verticalAlign=top;spacing=10;spacingTop=-4;whiteSpace=wrap;fillColor=#EFEBE9;movable=1;resizable=1;rotatable=1;deletable=1;editable=1;locked=0;connectable=1;" vertex="1" parent="1">
          <mxGeometry x="734.0526315789474" y="-500" width="278.9473684210526" height="290" as="geometry" />
        </mxCell>
        <mxCell id="G6J45XCW2_7zyPhB9Q_z-63" value="" style="sketch=0;points=[[0,0,0],[0.25,0,0],[0.5,0,0],[0.75,0,0],[1,0,0],[1,0.25,0],[1,0.5,0],[1,0.75,0],[1,1,0],[0.75,1,0],[0.5,1,0],[0.25,1,0],[0,1,0],[0,0.75,0],[0,0.5,0],[0,0.25,0]];rounded=1;absoluteArcSize=1;arcSize=2;html=1;strokeColor=none;gradientColor=none;shadow=0;dashed=0;fontSize=12;fontColor=#9E9E9E;align=left;verticalAlign=top;spacing=10;spacingTop=-4;whiteSpace=wrap;fillColor=#E1F5FE;movable=1;resizable=1;rotatable=1;deletable=1;editable=1;locked=0;connectable=1;" vertex="1" parent="1">
          <mxGeometry x="756.3684210526316" y="-470" width="234.3157894736842" height="240" as="geometry" />
        </mxCell>
        <mxCell id="G6J45XCW2_7zyPhB9Q_z-64" value="" style="strokeColor=none;shadow=1;strokeWidth=1;rounded=1;absoluteArcSize=1;arcSize=2;fillColor=none;movable=1;resizable=1;rotatable=1;deletable=1;editable=1;locked=0;connectable=1;" vertex="1" parent="1">
          <mxGeometry x="756.3684210526316" y="-470" width="211.99999999999997" height="60" as="geometry" />
        </mxCell>
        <mxCell id="G6J45XCW2_7zyPhB9Q_z-65" value="&lt;font color=&quot;#000000&quot;&gt;nonprod&lt;/font&gt;&lt;br&gt;Share VPC network" style="editableCssRules=.*;html=1;fontColor=#999999;shape=image;verticalLabelPosition=middle;verticalAlign=middle;labelPosition=right;align=left;spacingLeft=20;part=1;points=[];imageAspect=0;image=data:image/svg+xml,PHN2ZyB4bWxucz0iaHR0cDovL3d3dy53My5vcmcvMjAwMC9zdmciIHhtbG5zOnY9Imh0dHBzOi8vdmVjdGEuaW8vbmFubyIgd2lkdGg9IjIwIiBoZWlnaHQ9IjIwIiB2aWV3Qm94PSIwIDAgMjAgMjAiPiYjeGE7CTxzdHlsZSB0eXBlPSJ0ZXh0L2NzcyI+JiN4YTsJLnN0MHtmaWxsOiM0Mjg1ZjQ7fSYjeGE7CS5zdDF7ZmlsbDojNjY5ZGY2O30mI3hhOwkuc3Qye2ZpbGw6I2FlY2JmYTt9JiN4YTsJPC9zdHlsZT4mI3hhOwk8cGF0aCBjbGFzcz0ic3QyIiBkPSJNMTQgMGg2djZoLTZ6Ii8+JiN4YTsJPHBhdGggY2xhc3M9InN0MSIgZD0iTTE3IDBoM3Y2aC0zeiIvPiYjeGE7CTxwYXRoIGNsYXNzPSJzdDIiIGQ9Ik0xNCAxNGg2djZoLTZ6Ii8+JiN4YTsJPHBhdGggY2xhc3M9InN0MSIgZD0iTTE3IDE0aDN2NmgtM3oiLz4mI3hhOwk8cGF0aCBjbGFzcz0ic3QyIiBkPSJNMCAwaDZ2NkgweiIvPiYjeGE7CTxwYXRoIGNsYXNzPSJzdDEiIGQ9Ik0zIDBoM3Y2SDN6Ii8+JiN4YTsJPHBhdGggY2xhc3M9InN0MiIgZD0iTTAgMTRoNnY2SDB6Ii8+JiN4YTsJPGcgY2xhc3M9InN0MSI+JiN4YTsJCTxwYXRoIGQ9Ik0zIDE0aDN2Nkgzek02IDJoOHYySDZ6Ii8+JiN4YTsJCTxwYXRoIGQ9Ik02IDE2aDh2Mkg2ek0xNiA2aDJ2OGgtMnpNMiA2aDJ2OEgyeiIvPiYjeGE7CTwvZz4mI3hhOwk8cGF0aCBjbGFzcz0ic3QwIiBkPSJNMiA2aDJ2Mkgyem0xNCAwaDJ2MmgtMnpNNiAyaDJ2Mkg2em0wIDE0aDJ2Mkg2eiIvPiYjeGE7PC9zdmc+;movable=1;resizable=1;rotatable=1;deletable=1;editable=1;locked=0;connectable=1;" vertex="1" parent="G6J45XCW2_7zyPhB9Q_z-64">
          <mxGeometry width="30" height="30" relative="1" as="geometry">
            <mxPoint x="15" y="15" as="offset" />
          </mxGeometry>
        </mxCell>
        <mxCell id="G6J45XCW2_7zyPhB9Q_z-66" value="service project A - prod" style="sketch=0;points=[[0,0,0],[0.25,0,0],[0.5,0,0],[0.75,0,0],[1,0,0],[1,0.25,0],[1,0.5,0],[1,0.75,0],[1,1,0],[0.75,1,0],[0.5,1,0],[0.25,1,0],[0,1,0],[0,0.75,0],[0,0.5,0],[0,0.25,0]];rounded=1;absoluteArcSize=1;arcSize=2;html=1;strokeColor=none;gradientColor=none;shadow=0;dashed=0;fontSize=12;fontColor=#9E9E9E;align=left;verticalAlign=top;spacing=10;spacingTop=-4;whiteSpace=wrap;fillColor=#EFEBE9;movable=1;resizable=1;rotatable=1;deletable=1;editable=1;locked=0;connectable=1;" vertex="1" parent="1">
          <mxGeometry x="660" y="-180" width="208.84" height="160" as="geometry" />
        </mxCell>
        <mxCell id="G6J45XCW2_7zyPhB9Q_z-67" value="10.0.2.0/24&lt;div&gt;subnet&amp;nbsp;&lt;/div&gt;" style="sketch=0;points=[[0,0,0],[0.25,0,0],[0.5,0,0],[0.75,0,0],[1,0,0],[1,0.25,0],[1,0.5,0],[1,0.75,0],[1,1,0],[0.75,1,0],[0.5,1,0],[0.25,1,0],[0,1,0],[0,0.75,0],[0,0.5,0],[0,0.25,0]];rounded=1;absoluteArcSize=1;arcSize=2;html=1;strokeColor=none;gradientColor=none;shadow=0;dashed=0;fontSize=12;fontColor=#9E9E9E;align=left;verticalAlign=top;spacing=10;spacingTop=-4;whiteSpace=wrap;fillColor=#F3E5F5;" vertex="1" parent="1">
          <mxGeometry x="778.6800000000001" y="-320" width="160.32" height="55" as="geometry" />
        </mxCell>
        <mxCell id="G6J45XCW2_7zyPhB9Q_z-68" value="10.0.1.0/24&lt;div&gt;subnet&amp;nbsp;&lt;/div&gt;" style="sketch=0;points=[[0,0,0],[0.25,0,0],[0.5,0,0],[0.75,0,0],[1,0,0],[1,0.25,0],[1,0.5,0],[1,0.75,0],[1,1,0],[0.75,1,0],[0.5,1,0],[0.25,1,0],[0,1,0],[0,0.75,0],[0,0.5,0],[0,0.25,0]];rounded=1;absoluteArcSize=1;arcSize=2;html=1;strokeColor=none;gradientColor=none;shadow=0;dashed=0;fontSize=12;fontColor=#9E9E9E;align=left;verticalAlign=top;spacing=10;spacingTop=-4;whiteSpace=wrap;fillColor=#F3E5F5;" vertex="1" parent="1">
          <mxGeometry x="778.6800000000001" y="-410" width="160" height="55" as="geometry" />
        </mxCell>
        <mxCell id="G6J45XCW2_7zyPhB9Q_z-69" value="" style="strokeColor=#dddddd;shadow=1;strokeWidth=1;rounded=1;absoluteArcSize=1;arcSize=2;" vertex="1" parent="1">
          <mxGeometry x="690" y="-120" width="142.63" height="60" as="geometry" />
        </mxCell>
        <mxCell id="G6J45XCW2_7zyPhB9Q_z-70" value="Instance A" style="editableCssRules=.*;html=1;fontColor=#999999;shape=image;verticalLabelPosition=middle;verticalAlign=middle;labelPosition=right;align=left;spacingLeft=20;part=1;points=[];imageAspect=0;image=data:image/svg+xml,PHN2ZyB4bWxucz0iaHR0cDovL3d3dy53My5vcmcvMjAwMC9zdmciIHhtbG5zOnY9Imh0dHBzOi8vdmVjdGEuaW8vbmFubyIgd2lkdGg9IjIwIiBoZWlnaHQ9IjIwIiB2aWV3Qm94PSIwIDAgMjAgMjAiPiYjeGE7CTxzdHlsZSB0eXBlPSJ0ZXh0L2NzcyI+JiN4YTsJLnN0MHtmaWxsOiM0Mjg1ZjQ7fSYjeGE7CS5zdDF7ZmlsbDojNjY5ZGY2O30mI3hhOwkuc3Qye2ZpbGw6I2FlY2JmYTt9JiN4YTsJPC9zdHlsZT4mI3hhOwk8cGF0aCBjbGFzcz0ic3QyIiBkPSJNNyA3aDZ2Nkg3eiIvPiYjeGE7CTxwYXRoIGNsYXNzPSJzdDEiIGQ9Ik05IDBoMnY0SDl6TTUgMGgydjRINXptOCAwaDJ2NGgtMnoiLz4mI3hhOwk8cGF0aCBjbGFzcz0ic3QwIiBkPSJNOSAxNmgydjRIOXptLTQgMGgydjRINXptOCAwaDJ2NGgtMnptMy01VjloNHYyem0wIDR2LTJoNHYyem0wLThWNWg0djJ6Ii8+JiN4YTsJPHBhdGggY2xhc3M9InN0MSIgZD0iTTAgMTFWOWg0djJ6bTAgNHYtMmg0djJ6bTAtOFY1aDR2MnoiLz4mI3hhOwk8cGF0aCBjbGFzcz0ic3QyIiBkPSJNMyAzdjE0aDE0VjN6bTEyIDEySDVWNWgxMHoiLz4mI3hhOwk8cGF0aCBjbGFzcz0ic3QxIiBkPSJNMTAgMTBsLTMgM2g2eiIvPiYjeGE7CTxwYXRoIGNsYXNzPSJzdDAiIGQ9Ik0xMyA3bC0zIDMgMyAzeiIvPiYjeGE7PC9zdmc+;" vertex="1" parent="G6J45XCW2_7zyPhB9Q_z-69">
          <mxGeometry width="30" height="30" relative="1" as="geometry">
            <mxPoint x="15" y="15" as="offset" />
          </mxGeometry>
        </mxCell>
        <mxCell id="G6J45XCW2_7zyPhB9Q_z-71" value="service project b - prod" style="sketch=0;points=[[0,0,0],[0.25,0,0],[0.5,0,0],[0.75,0,0],[1,0,0],[1,0.25,0],[1,0.5,0],[1,0.75,0],[1,1,0],[0.75,1,0],[0.5,1,0],[0.25,1,0],[0,1,0],[0,0.75,0],[0,0.5,0],[0,0.25,0]];rounded=1;absoluteArcSize=1;arcSize=2;html=1;strokeColor=none;gradientColor=none;shadow=0;dashed=0;fontSize=12;fontColor=#9E9E9E;align=left;verticalAlign=top;spacing=10;spacingTop=-4;whiteSpace=wrap;fillColor=#EFEBE9;movable=1;resizable=1;rotatable=1;deletable=1;editable=1;locked=0;connectable=1;" vertex="1" parent="1">
          <mxGeometry x="900" y="-180" width="208.84" height="160" as="geometry" />
        </mxCell>
        <mxCell id="G6J45XCW2_7zyPhB9Q_z-72" value="" style="strokeColor=#dddddd;shadow=1;strokeWidth=1;rounded=1;absoluteArcSize=1;arcSize=2;" vertex="1" parent="1">
          <mxGeometry x="914.4200000000001" y="-120" width="180" height="60" as="geometry" />
        </mxCell>
        <mxCell id="G6J45XCW2_7zyPhB9Q_z-73" value="&lt;br&gt;Kubernetes Engine" style="editableCssRules=.*;html=1;fontColor=#999999;shape=image;verticalLabelPosition=middle;verticalAlign=middle;labelPosition=right;align=left;spacingLeft=20;part=1;points=[];imageAspect=0;image=data:image/svg+xml,PHN2ZyB4bWxucz0iaHR0cDovL3d3dy53My5vcmcvMjAwMC9zdmciIHhtbG5zOnY9Imh0dHBzOi8vdmVjdGEuaW8vbmFubyIgd2lkdGg9IjMyOS45MjU5OTcyMzE3OTM4IiBoZWlnaHQ9IjM3OC4yODQ5OTAzMTEyNzg4IiB2aWV3Qm94PSIwIDAgODcuMjkyOTk5MjY3NTc4MTIgMTAwLjA4Nzk5NzQzNjUyMzQ0Ij4mI3hhOzxzdHlsZSB0eXBlPSJ0ZXh0L2NzcyI+JiN4YTsJLnN0MHtmaWxsOiNhZWNiZmE7fSYjeGE7CS5zdDF7ZmlsbDojNjY5ZGY2O30mI3hhOwkuc3Qye2ZpbGw6IzQyODVmNDt9JiN4YTs8L3N0eWxlPiYjeGE7CTxwYXRoIGNsYXNzPSJzdDAiIGQ9Ik00My43NTEgMEwwIDI1LjQ2NXYyLjU4OCA0Ni45Mmw0My43NTIgMjUuMTE1IDQzLjU0MS0yNS4xMjFWMjUuNDczem0yLjQzOCAxMS44NTNsMzIuMTAzIDE4Ljc4MlY2OS43N0w0My43MzkgODkuNzA1IDkgNjkuNzYyVjMwLjY0MWwzMi4xOS0xOC43MzZ2MTQuMTU0TDI0LjUwMyAzNi4xNTNsMTkuMTcyIDExLjUwMiAxOC44ODYtMTEuNTU0LTE2LjM3Mi0xMC4wMjR6Ii8+JiN4YTsJPHBhdGggY2xhc3M9InN0MSIgZD0iTTIyLjAyNSA0MC40OTZsLjE2NiAxOS4xNDMtMTMuMjQ3IDcuMzN2Mi43NDJsMi42MzcgMS41MTQgMTIuNjQ4LTYuOTk5IDE2Ljk2MSAxMC42MDJWNTEuOTkzeiIvPiYjeGE7CTxwYXRoIGNsYXNzPSJzdDIiIGQ9Ik02NS4zNDQgNDAuMjZMNDYuMTg5IDUxLjk3OXYyMi44NDdsMTYuODk5LTEwLjU3NiAxMi41MzkgNi45NzQgMi42MDktMS41MDV2LTIuNzY1bC0xMi43ODQtNy4xMTJ6Ii8+JiN4YTs8L3N2Zz4=;" vertex="1" parent="G6J45XCW2_7zyPhB9Q_z-72">
          <mxGeometry width="26" height="30" relative="1" as="geometry">
            <mxPoint x="17" y="15" as="offset" />
          </mxGeometry>
        </mxCell>
        <mxCell id="G6J45XCW2_7zyPhB9Q_z-74" value="" style="edgeStyle=orthogonalEdgeStyle;fontSize=12;html=1;endArrow=blockThin;endFill=1;rounded=0;strokeWidth=2;endSize=4;startSize=4;dashed=0;strokeColor=#9E9E9E;exitX=0;exitY=0.5;exitDx=0;exitDy=0;entryX=0;entryY=0.5;entryDx=0;entryDy=0;entryPerimeter=0;" edge="1" parent="1" source="G6J45XCW2_7zyPhB9Q_z-69" target="G6J45XCW2_7zyPhB9Q_z-68">
          <mxGeometry width="100" relative="1" as="geometry">
            <mxPoint x="810" y="-140" as="sourcePoint" />
            <mxPoint x="910" y="-140" as="targetPoint" />
          </mxGeometry>
        </mxCell>
        <mxCell id="G6J45XCW2_7zyPhB9Q_z-75" value="" style="edgeStyle=orthogonalEdgeStyle;fontSize=12;html=1;endArrow=blockThin;endFill=1;rounded=0;strokeWidth=2;endSize=4;startSize=4;dashed=0;strokeColor=#9E9E9E;exitX=1;exitY=0.25;exitDx=0;exitDy=0;entryX=1;entryY=0.5;entryDx=0;entryDy=0;entryPerimeter=0;" edge="1" parent="1" source="G6J45XCW2_7zyPhB9Q_z-72" target="G6J45XCW2_7zyPhB9Q_z-67">
          <mxGeometry width="100" relative="1" as="geometry">
            <mxPoint x="1100" y="-88" as="sourcePoint" />
            <mxPoint x="1189" y="-380" as="targetPoint" />
          </mxGeometry>
        </mxCell>
      </root>
    </mxGraphModel>
  </diagram>
  <diagram id="dTyUVFgRSoxoaTM-pirx" name="Page-2">
    <mxGraphModel grid="1" page="1" gridSize="10" guides="1" tooltips="1" connect="1" arrows="1" fold="1" pageScale="1" pageWidth="827" pageHeight="1169" math="0" shadow="0">
      <root>
        <mxCell id="0" />
        <mxCell id="1" parent="0" />
      </root>
    </mxGraphModel>
  </diagram>
</mxfile>
